<svg xmlns="http://www.w3.org/2000/svg" width="100" viewBox="0 0 171.9 2238.2">
<style type="text/css">
	.st0{opacity:0.2;}
  .st1{opacity:0.25;}
  .st2{opacity:0.35;}
  .st3{opacity:0.3;}
</style>
<circle class="st0" cx="78.7" cy="124.6" r="34"/>
<circle class="st0" cx="108.1" cy="1416.5" r="13.5"/>
<path class="st0" d="M171,921c1.7,3.4,0.3,7.7-3.2,9.4l-28.7,14.2c-3.4,1.7-7.7,0.3-9.4-3.2l-14.2-28.7c-1.7-3.4-0.3-7.7,3.2-9.4
  l28.7-14.2c3.4-1.7,7.7-0.3,9.4,3.2L171,921z"/>
<path class="st0" d="M63.3,1826.2c-0.7-3.8-4.2-7.9-7.9-9.2l-18.9-6.7c-3.6-1.3-9-0.3-11.9,2.2l-15.2,13c-2.9,2.5-4.7,7.6-4,11.4
  l3.6,19.7c0.7,3.8,4.2,7.9,7.9,9.2l18.9,6.7c3.6,1.3,9,0.3,11.9-2.2l15.2-13c2.9-2.5,4.7-7.6,4-11.4L63.3,1826.2z"/>
</svg>
