<svg xmlns="http://www.w3.org/2000/svg" width="100" viewBox="0 0 172 2110.5">
<style type="text/css">
	.st0{opacity:0.2;}
  .st1{opacity:0.3;}
  .st2{opacity:0.25;}
</style>
<circle class="st0" cx="28" cy="1106.9" r="23.3"/>
<path class="st1" d="M165.6,178.5c1.6-3.5,1.1-8.9-1.1-12.1l-11.6-16.3c-2.2-3.1-7.2-5.4-11-5l-19.9,1.9c-3.8,0.4-8.3,3.5-9.9,7
  l-8.3,18.2c-1.6,3.5-1.1,8.9,1.1,12.1l11.6,16.3c2.2,3.1,7.2,5.4,11,5l19.9-1.9c3.8-0.4,8.3-3.5,9.9-7L165.6,178.5z"/>
<path class="st2" d="M117.6,1919.5c-0.4,3.8-3.9,6.6-7.7,6.2l-45.6-5c-3.8-0.4-6.6-3.9-6.2-7.7l5-45.6c0.4-3.8,3.9-6.6,7.7-6.2
  l45.6,5c3.8,0.4,6.6,3.9,6.2,7.7L117.6,1919.5z"/>
</svg>
