<?xml version="1.0" encoding="iso-8859-1"?>
<!-- Generator: Adobe Illustrator 19.0.0, SVG Export Plug-In . SVG Version: 6.00 Build 0)  -->
<svg version="1.1" id="Layer_1" xmlns="http://www.w3.org/2000/svg" xmlns:xlink="http://www.w3.org/1999/xlink" x="0px" y="0px"
	 viewBox="0 0 512 512" style="enable-background:new 0 0 512 512;" xml:space="preserve">
<path d="M386.375,35.514c-2.636-1.563-5.645-2.387-8.708-2.387H134.209c-3.065,0-6.073,0.824-8.708,2.387
	c-166.99,98.997-167.673,341.572-0.011,440.971c2.636,1.563,5.645,2.387,8.708,2.387h243.48c3.065,0,6.073-0.825,8.708-2.387
	C555.247,376.377,552.493,133.987,386.375,35.514z M138.985,67.283H372.89c27.06,16.817,50.238,39.381,67.837,65.71
	c-30.067-5.108-60.77,2.845-84.125,21.042c-26.23,20.304-62.934,20.508-89.378,0.618c-0.277-0.207-0.558-0.404-0.832-0.617
	c-38.73-29.986-93.09-30.149-132.023-0.003c-22.521,17.426-53.175,20.346-78.616,7.354c-0.187-0.096-0.375-0.187-0.561-0.285
	C73.431,122.683,102.72,89.823,138.985,67.283z M379.263,321.002c-32.012,58.165-132.62,66.592-179.736,15.552l-41.916,30.449
	c-7.626,5.541-18.308,3.855-23.854-3.78c-5.543-7.631-3.852-18.311,3.78-23.854l36.621-26.602l-36.621-26.602
	c-7.631-5.543-9.323-16.223-3.78-23.854c5.543-7.631,16.223-9.322,23.854-3.78l41.917,30.449
	c47.189-51.119,147.772-42.523,179.736,15.551C382.085,309.66,382.085,315.875,379.263,321.002z"/>
<g>
</g>
<g>
</g>
<g>
</g>
<g>
</g>
<g>
</g>
<g>
</g>
<g>
</g>
<g>
</g>
<g>
</g>
<g>
</g>
<g>
</g>
<g>
</g>
<g>
</g>
<g>
</g>
<g>
</g>
</svg>
