<?xml version="1.0" encoding="iso-8859-1"?>
<!-- Generator: Adobe Illustrator 16.0.0, SVG Export Plug-In . SVG Version: 6.00 Build 0)  -->
<!DOCTYPE svg PUBLIC "-//W3C//DTD SVG 1.1//EN" "http://www.w3.org/Graphics/SVG/1.1/DTD/svg11.dtd">
<svg version="1.1" id="Capa_1" xmlns="http://www.w3.org/2000/svg" xmlns:xlink="http://www.w3.org/1999/xlink" x="0px" y="0px"
	 width="81.948px" height="81.948px" viewBox="0 0 81.948 81.948" style="enable-background:new 0 0 81.948 81.948;"
	 xml:space="preserve">
<g>
	<g>
		<path d="M25.306,54.759L17.98,74.409l15.73-13.864c-1.633-0.603-3.165-1.387-4.574-2.354
			C27.719,57.225,26.438,56.076,25.306,54.759z"/>
		<path d="M56.643,27.174l7.32-19.637L48.244,21.396c1.619,0.593,3.144,1.38,4.562,2.356C54.229,24.722,55.512,25.872,56.643,27.174
			z"/>
		<path d="M58.188,52.802c-0.975,1.414-2.119,2.688-3.434,3.834l19.658,7.327L60.539,48.245
			C59.948,49.853,59.161,51.381,58.188,52.802z"/>
		<path d="M23.757,29.135c0.97-1.408,2.119-2.698,3.437-3.831L7.521,17.971l13.891,15.737C22.003,32.089,22.783,30.56,23.757,29.135
			z"/>
		<path d="M81.944,33.372l-27.582-1.705c-2.272-3.258-5.648-5.59-9.492-6.548L33.385,0l-1.721,27.575
			c-3.249,2.261-5.571,5.646-6.532,9.49L0.004,48.566l27.586,1.718c2.266,3.251,5.639,5.587,9.49,6.52l11.483,25.145l1.716-27.59
			c3.259-2.249,5.579-5.639,6.528-9.489L81.944,33.372z M42.481,49.073c-4.466,0.835-8.771-2.119-9.598-6.604
			c-0.831-4.475,2.131-8.769,6.594-9.595c4.466-0.837,8.762,2.134,9.595,6.601C49.9,43.947,46.935,48.24,42.481,49.073z"/>
	</g>
</g>
<g>
</g>
<g>
</g>
<g>
</g>
<g>
</g>
<g>
</g>
<g>
</g>
<g>
</g>
<g>
</g>
<g>
</g>
<g>
</g>
<g>
</g>
<g>
</g>
<g>
</g>
<g>
</g>
<g>
</g>
</svg>
