<?xml version="1.0" encoding="iso-8859-1"?>
<!-- Generator: Adobe Illustrator 19.0.0, SVG Export Plug-In . SVG Version: 6.00 Build 0)  -->
<svg version="1.1" id="Layer_1" xmlns="http://www.w3.org/2000/svg" xmlns:xlink="http://www.w3.org/1999/xlink" x="0px" y="0px"
	 viewBox="0 0 395.564 395.564" style="enable-background:new 0 0 395.564 395.564;" xml:space="preserve">
<g id="XMLID_40_">
	<g>
		<path d="M303.034,128.08c-30.366-34.38-66.561-61.233-107.582-79.813C152.627,28.867,105.63,19.031,55.769,19.031
			c-6.797,0-13.675,0.188-20.442,0.557L0,21.517l25.946,24.051c50.87,47.155,59.822,104.793,59.822,208.465
			c0,42.273-18.741,108.504-44.02,114.664c9.416,4.994,20.14,7.836,31.52,7.836c21.188,0,40.115-9.82,52.5-25.139
			c12.385,15.318,31.312,25.139,52.5,25.139s40.115-9.82,52.5-25.139c12.385,15.318,31.313,25.139,52.5,25.139
			s40.115-9.82,52.5-25.139c12.385,15.318,31.313,25.139,52.5,25.139c2.466,0,4.898-0.142,7.296-0.4
			C392.869,280.555,360.268,192.878,303.034,128.08z"/>
	</g>
</g>
<g>
</g>
<g>
</g>
<g>
</g>
<g>
</g>
<g>
</g>
<g>
</g>
<g>
</g>
<g>
</g>
<g>
</g>
<g>
</g>
<g>
</g>
<g>
</g>
<g>
</g>
<g>
</g>
<g>
</g>
</svg>
